<svg width="2" height="11" viewBox="0 0 2 11" fill="none" xmlns="http://www.w3.org/2000/svg">
<path id="Vector" d="M1.67296 7.41573L1.86164 3.67697V0H0.150943V3.67697L0.352201 7.41573H1.67296ZM1.01887 11C1.15304 11 1.28302 10.9691 1.40881 10.9073C1.5262 10.8455 1.63103 10.7631 1.72327 10.6601C1.80713 10.5571 1.87421 10.4387 1.92453 10.3048C1.97484 10.1606 2 10.0112 2 9.85674V9.77949C2 9.625 1.97484 9.48081 1.92453 9.34691C1.87421 9.20272 1.80713 9.08427 1.72327 8.99157C1.63103 8.88857 1.5262 8.80618 1.40881 8.74438C1.28302 8.68258 1.15304 8.65169 1.01887 8.65169C0.876316 8.65169 0.746325 8.68258 0.628931 8.74438C0.503145 8.80618 0.394124 8.88857 0.301887 8.99157C0.20965 9.08427 0.138365 9.20272 0.0880504 9.34691C0.0293442 9.48081 0 9.625 0 9.77949V9.85674C0 10.0112 0.0293442 10.1606 0.0880504 10.3048C0.138365 10.4387 0.20965 10.5571 0.301887 10.6601C0.394124 10.7631 0.503145 10.8455 0.628931 10.9073C0.746325 10.9691 0.876316 11 1.01887 11Z" fill="white"/>
</svg>
